<?xml version="1.0" standalone="no"?>
<!DOCTYPE svg PUBLIC "-//W3C//DTD SVG 20010904//EN"
 "http://www.w3.org/TR/2001/REC-SVG-20010904/DTD/svg10.dtd">
<svg version="1.0" xmlns="http://www.w3.org/2000/svg"
 width="250.000000pt" height="100.000000pt" viewBox="0 0 250.000000 100.000000"
 preserveAspectRatio="xMidYMid meet">

<g transform="translate(0.000000,100.000000) scale(0.100000,-0.100000)"
fill="#000000" stroke="none">
<path d="M142 793 c-39 -14 -49 -33 -16 -33 12 0 14 -33 14 -200 0 -110 3
-200 6 -200 4 0 12 8 19 17 11 14 16 15 44 4 41 -18 125 -9 159 16 49 36 66
70 66 126 0 68 -26 111 -82 139 -44 21 -62 20 -129 -8 -10 -4 -13 14 -13 75 0
90 1 89 -68 64z m168 -170 c53 -31 72 -109 42 -177 -22 -48 -44 -60 -98 -54
-41 4 -54 38 -54 140 0 72 3 89 18 97 25 15 60 13 92 -6z"/>
<path d="M875 792 c-52 -20 -53 -22 -32 -33 15 -9 17 -29 17 -185 0 -167 -1
-176 -20 -181 -44 -12 -16 -23 55 -23 71 0 99 11 55 23 -19 5 -20 14 -20 211
0 113 -3 206 -7 205 -5 -1 -26 -8 -48 -17z"/>
<path d="M1055 774 c-20 -21 -19 -41 4 -54 25 -13 27 -13 45 6 12 11 13 20 6
34 -14 25 -37 32 -55 14z"/>
<path d="M1251 659 c-13 -11 -31 -24 -40 -29 -14 -9 -14 -11 2 -20 14 -9 17
-26 17 -110 0 -98 0 -100 -25 -106 -50 -12 -23 -24 55 -24 47 0 80 4 80 10 0
6 -7 10 -15 10 -24 0 -35 35 -35 118 0 94 17 125 68 125 55 0 62 -14 62 -130
0 -96 -2 -105 -20 -110 -44 -12 -16 -23 55 -23 71 0 99 11 55 23 -18 5 -20 14
-20 116 0 100 -2 112 -22 136 -34 39 -84 43 -131 11 -46 -32 -47 -32 -47 -1 0
30 -7 31 -39 4z"/>
<path d="M1675 665 c-125 -44 -141 -220 -25 -280 55 -28 155 -12 191 31 18 22
3 28 -23 10 -12 -9 -41 -16 -64 -16 -50 0 -89 34 -104 90 -18 65 -11 70 101
70 88 0 99 2 99 18 0 28 -30 63 -66 78 -41 17 -58 17 -109 -1z m93 -17 c17
-17 15 -45 -4 -52 -9 -3 -37 -6 -64 -6 -43 0 -48 2 -43 20 11 42 83 66 111 38z"/>
<path d="M1055 646 c-22 -11 -42 -22 -45 -24 -3 -2 6 -11 18 -21 21 -16 23
-23 20 -106 -3 -82 -5 -91 -25 -100 -41 -18 -24 -25 57 -25 78 0 105 12 55 24
l-25 6 0 135 c0 74 -3 135 -7 134 -5 -1 -26 -11 -48 -23z"/>
</g>
</svg>
